#
#
#

mtllib Snake.mtl


#
# 58
#
g 58

v -1.293104 0.000005 106.379311
v 13.706896 0.000005 106.379311
v -1.293104 -0.000005 -103.620689
v 13.706896 -0.000005 -103.620689
v -1.293104 15.000005 106.379311
v 13.706896 15.000005 106.379311
v -1.293104 14.999995 -103.620689
v 13.706896 14.999995 -103.620689
vn -0.577350 -0.577350 0.577350
vn -0.577350 -0.577350 -0.577350
vn 0.577350 -0.577350 -0.577350
vn 0.577350 -0.577350 0.577350
vn -0.577350 0.577350 0.577350
vn 0.577350 0.577350 0.577350
vn 0.577350 0.577350 -0.577350
vn -0.577350 0.577350 -0.577350
vt 1.000000 0.000000
vt 1.000000 1.000000
vt 0.000000 1.000000
vt 0.000000 0.000000
f 1/1/1 3/2/2 4/3/3 2/4/4
f 5/4/5 6/1/6 8/2/7 7/3/8
f 1/4/1 2/1/4 6/2/6 5/3/5
f 2/4/4 4/1/3 8/2/7 6/3/6
f 4/4/3 3/1/2 7/2/8 8/3/7
f 3/4/2 1/1/1 5/2/5 7/3/8


#
# 57
#
g 57

v 223.494400 0.000005 -87.799919
v 223.494400 0.000005 -102.799919
v 13.494400 -0.000004 -87.799904
v 13.494400 -0.000004 -102.799904
v 223.494400 15.000006 -87.799919
v 223.494400 15.000006 -102.799919
v 13.494400 14.999996 -87.799904
v 13.494400 14.999996 -102.799904
vn 0.577350 -0.577350 0.577350
vn -0.577350 -0.577350 0.577350
vn -0.577350 -0.577350 -0.577350
vn 0.577350 -0.577350 -0.577350
vn 0.577350 0.577350 0.577350
vn 0.577350 0.577350 -0.577350
vn -0.577350 0.577350 -0.577350
vn -0.577350 0.577350 0.577350
vt 1.000000 0.000000
vt 1.000000 1.000000
vt 0.000000 1.000000
vt 0.000000 0.000000
f 9/5/9 11/6/10 12/7/11 10/8/12
f 13/8/13 14/5/14 16/6/15 15/7/16
f 9/8/9 10/5/12 14/6/14 13/7/13
f 10/8/12 12/5/11 16/6/15 14/7/14
f 12/8/11 11/5/10 15/6/16 16/7/15
f 11/8/10 9/5/9 13/6/13 15/7/16


#
# 59
#
g 59

v 0.948013 -0.000004 106.038689
v 0.948013 -0.000004 91.038689
v -209.051987 -0.000013 106.038704
v -209.051987 -0.000013 91.038704
v 0.948013 14.999996 106.038689
v 0.948013 14.999996 91.038689
v -209.051987 14.999987 106.038704
v -209.051987 14.999987 91.038704
vn 0.577350 -0.577350 0.577350
vn -0.577350 -0.577350 0.577350
vn -0.577350 -0.577350 -0.577350
vn 0.577350 -0.577350 -0.577350
vn 0.577350 0.577350 0.577350
vn 0.577350 0.577350 -0.577350
vn -0.577350 0.577350 -0.577350
vn -0.577350 0.577350 0.577350
vt 1.000000 0.000000
vt 1.000000 1.000000
vt 0.000000 1.000000
vt 0.000000 0.000000
f 17/9/17 19/10/18 20/11/19 18/12/20
f 21/12/21 22/9/22 24/10/23 23/11/24
f 17/12/17 18/9/20 22/10/22 21/11/21
f 18/12/20 20/9/19 24/10/23 22/11/22
f 20/12/19 19/9/18 23/10/24 24/11/23
f 19/12/18 17/9/17 21/10/21 23/11/24
